<svg height="512" viewBox="0 0 128 128" width="512" xmlns="http://www.w3.org/2000/svg"><g><path d="m76.148 62.674a1.746 1.746 0 0 0 -2.106 1.3l-3.483 14.66h-11.8l-3.811-7.643a1.75 1.75 0 1 0 -3.132 1.563l4.294 8.611a1.749 1.749 0 0 0 1.566.969h14.266a1.75 1.75 0 0 0 1.7-1.346l3.8-16.008a1.749 1.749 0 0 0 -1.294-2.106z" fill="#c5e2f9"/><path d="m64.937 66.558a1.75 1.75 0 0 0 -3.5 0 14.8 14.8 0 0 0 2.745 8 1.75 1.75 0 0 0 2.8-2.1 11.4 11.4 0 0 1 -2.045-5.9z" fill="#4d5e80"/><g><path d="m115.261 44.485h5.739v7.221h-5.739z" fill="#4d5e80"/><path d="m92.688 39.565h17.682v-6.565h-10.422z" fill="#4d5e80"/><path d="m85.221 66.558h5.48v6.952h-5.48z" fill="#75e1f7"/><path d="m19.78 74.787a3.994 3.994 0 0 1 -4.236-4.829l3.1-14.427h22.826v-2.47l4.157-6.748h-33.627a5 5 0 0 0 -5 5v33.214h19.589l19.038-11.235h8.512a4 4 0 0 0 4-4v-2.734h-16.669a44.787 44.787 0 0 1 -21.69 8.229z" fill="#4d5e80"/><path d="m41.47 53.061h32.927l3.565 3.566h37.299v-17.062h-65.478z" fill="#75e1f7"/><path d="m74.397 53.061h-32.927v13.497h73.791v-9.931h-37.299z" fill="#def6ff"/><path d="m83.328 73.509h9.267v21.491h-9.267z" fill="#4d5e80"/></g><g fill="#30cffc"><path d="m87.961 44.986a1.751 1.751 0 0 0 -1.75 1.75v2.719a1.75 1.75 0 0 0 3.5 0v-2.719a1.75 1.75 0 0 0 -1.75-1.75z"/><path d="m94.745 44.986a1.751 1.751 0 0 0 -1.745 1.75v2.719a1.75 1.75 0 0 0 3.5 0v-2.719a1.751 1.751 0 0 0 -1.755-1.75z"/><path d="m101.529 44.986a1.751 1.751 0 0 0 -1.75 1.75v2.719a1.75 1.75 0 0 0 3.5 0v-2.719a1.751 1.751 0 0 0 -1.75-1.75z"/></g></g></svg>